inDegrees=no
num_controls=7
num_derivatives=13
num_iterations=96
num_multipliers=7
num_parameters=0
num_slacks=7
num_states=26
objective=0.443984
objective_accelerations=0.059813
objective_balance=0.003761
objective_effort=0.024179
objective_height=0.350763
objective_ligament=0.005467
solver_duration=1408.853064
status=Solve_Succeeded
success=true
DataType=double
version=3
OpenSimVersion=4.5
endheader
time	/jointset/ground_pelvis/pelvis_tilt/value	/jointset/ground_pelvis/pelvis_tx/value	/jointset/ground_pelvis/pelvis_ty/value	/jointset/hip_l/hip_flexion_l/value	/jointset/hip_l/hip_adduction_l/value	/jointset/hip_l/hip_rotation_l/value	/jointset/back/lumbar_extension/value	/jointset/patellofemoral_l/patellar_flexion_l/value	/jointset/knee_l/knee_flexion_l/value	/jointset/knee_l/knee_adduction_l/value	/jointset/knee_l/knee_rotation_l/value	/jointset/ankle_l/ankle_angle_l/value	/jointset/subtalar_l/subtalar_angle_l/value	/jointset/ground_pelvis/pelvis_tilt/speed	/jointset/ground_pelvis/pelvis_tx/speed	/jointset/ground_pelvis/pelvis_ty/speed	/jointset/hip_l/hip_flexion_l/speed	/jointset/hip_l/hip_adduction_l/speed	/jointset/hip_l/hip_rotation_l/speed	/jointset/back/lumbar_extension/speed	/jointset/patellofemoral_l/patellar_flexion_l/speed	/jointset/knee_l/knee_flexion_l/speed	/jointset/knee_l/knee_adduction_l/speed	/jointset/knee_l/knee_rotation_l/speed	/jointset/ankle_l/ankle_angle_l/speed	/jointset/subtalar_l/subtalar_angle_l/speed	/forceset/tau_hip_flexion_l	/forceset/tau_hip_adduction_l	/forceset/tau_hip_rotation_l	/forceset/tau_knee_flexion_l	/forceset/tau_ankle_angle_l	/forceset/tau_subtalar_angle_l	/forceset/tau_lumbar_extension	lambda_cid13_p0	lambda_cid13_p1	lambda_cid13_p2	lambda_cid13_p3	lambda_cid13_p4	lambda_cid13_p5	lambda_cid14_p0	/jointset/ground_pelvis/pelvis_tilt/accel	/jointset/ground_pelvis/pelvis_tx/accel	/jointset/ground_pelvis/pelvis_ty/accel	/jointset/hip_l/hip_flexion_l/accel	/jointset/hip_l/hip_adduction_l/accel	/jointset/hip_l/hip_rotation_l/accel	/jointset/back/lumbar_extension/accel	/jointset/patellofemoral_l/patellar_flexion_l/accel	/jointset/knee_l/knee_flexion_l/accel	/jointset/knee_l/knee_adduction_l/accel	/jointset/knee_l/knee_rotation_l/accel	/jointset/ankle_l/ankle_angle_l/accel	/jointset/subtalar_l/subtalar_angle_l/accel	gamma_cid13_p0	gamma_cid13_p1	gamma_cid13_p2	gamma_cid13_p3	gamma_cid13_p4	gamma_cid13_p5	gamma_cid14_p0
1	-0.5783811926434549	-0.09175596006603907	0.5561719015370066	1.914824502945595	-0.464704052303543	0.02109964139963231	-0.2617748248921123	1.415120280109684	1.415120280108674	-0.07219274156259009	-0.1745242735111335	0.2045672078208841	-0.01580307478898892	-0.01408470920554485	0.01216117679365871	0.004702917659514417	-0.01065880991658008	-0.002872759259235625	0.003208752589318532	0.0001022563972690689	-0.0004180192290454415	-0.0004180192290454818	-0.006570375750270878	-0.0002139790778700992	0.02395676289099732	0.01015289692348049	-0.3527131254183254	0.008982927180248419	0.0007340261884356305	-0.2992001825350545	0.04328824517150275	0.03083876859619811	0.2971141086511453	-26.38648670884055	-9.215416773217322	1.638396335697728	8.231065815170325	-647.8466950632549	-44.95125664953036	-0.8478093953403141	1.585742559522755	0.2313234091013	2.066219716570602	-7.120956365568612	-0.1141019882752384	-2.357264882352297	-0.02026495102505	-5.402971415484275	-5.402971415484267	-0.6542793535065941	-0.02916750101499848	-0.5570310546683219	-0.4292626821167815	5.405327173288541e-09	2.018147578270568e-08	-1.426701783926621e-08	1.945126103210613e-09	-2.414800587706202e-09	2.849802016549565e-08	2.241751919658898e-09
1.01	-0.5784437426413889	-0.09162284940695807	0.5563220839631972	1.914363228417055	-0.4647373960643837	0.02101283643887568	-0.2617737526287727	1.414846039531843	1.414846039530557	-0.07228848236951006	-0.174526420237648	0.2047790473593353	-0.01572154895541966	0.001574426729196364	0.01446282546896078	0.02532841225476235	-0.08158268052852362	-0.003791123121612794	-0.0205655023881625	0.0001130917805133454	-0.05442770379910767	-0.05442770379910876	-0.01257655296487083	-0.0002123401681074411	0.01840116362567575	0.006152265571775988	-0.3525824733834725	0.00913742651641109	0.0007193538643203974	-0.2990327532393059	0.04309170604425615	0.03083294307895504	0.2970168648860891	-26.43532341144928	-9.206850487490149	1.639902950626831	8.184758935173775	-647.6734920300659	-44.94084147280606	-0.8521822310277555	1.555955204603288	0.2298664238528376	2.059938454637543	-7.076091838257399	-0.07997289704775586	-2.386875647071082	0.01189210938725113	-5.399605935337632	-5.399605935337783	-0.5736061197729913	0.01529110190408413	-0.5563210477084867	-0.3854684246177718	-3.243190522874339e-09	9.869769867603391e-09	2.41957159751451e-08	1.30746010320512e-09	-1.278420766430957e-08	8.539639026958358e-08	-1.067677878182251e-08
1.02	-0.5783497100611452	-0.09146666609570241	0.5566783661600674	1.913193117296547	-0.4647797773262136	0.02068841496002968	-0.2617725451463221	1.414031774316785	1.414031774315225	-0.07244424879143632	-0.1745284582720973	0.204935031568085	-0.01568003044795154	0.01723180643007759	0.01677570722858911	0.04592287179544494	-0.152426128310474	-0.004680259457146763	-0.04431455103064547	0.0001293002192827639	-0.108422946671987	-0.108422946671989	-0.01857549875292103	-0.0001922406610563558	0.01278569695057773	0.002151431703253115	-0.3524518213486036	0.009291925852597716	0.0007046815402073986	-0.2988653239435575	0.04289516691701393	0.03082711756174479	0.2969196211210461	-26.48939890840697	-9.197159679244784	1.640993688550878	8.159012639100427	-647.5742703625064	-44.9077125936669	-0.8647115602007317	1.585391312750774	0.2335700259665309	2.060012705657535	-7.104871799569968	-0.1082564829065267	-2.352223615352617	-0.01919033992004898	-5.400083076047721	-5.400083076047682	-0.6528330681966131	-0.02547538155718129	-0.569004536623639	-0.4293031854803804	-1.125069067924852e-08	9.962884471130813e-10	6.341901260026506e-08	9.024798185561343e-10	-2.255995490685273e-08	1.405758939538919e-07	-2.297984171374144e-08
1.03	-0.5780990505349748	-0.09128726276806465	0.5572403540161122	1.91131513589476	-0.4648307799386034	0.02012677634357336	-0.2617711716873564	1.412677735796511	1.412677735796132	-0.07265991296777438	-0.1745300852141264	0.2050344857552515	-0.01567840676030646	0.03290499728517683	0.01911020742654369	0.06646117539013327	-0.2231396640350842	-0.005501833827585526	-0.06799352627955407	0.0001450067410035991	-0.1623719984730413	-0.1623719984730415	-0.0245495118479831	-0.0001161707112331095	0.007087807858755621	-0.001813691827315821	-0.3520080120796436	0.009539351554627927	0.0006613804859552343	-0.2985607144552324	0.04277133781764955	0.03088013220194451	0.2966089524289737	-26.49922188359405	-9.227648526147426	1.656345311216212	8.062382663294505	-647.1619407162212	-44.93141408456751	-0.885617453084706	1.559013722785134	0.2341774833512527	2.048704057726419	-7.050025889059057	-0.06635110490166175	-2.372808942324819	0.01189342320107283	-5.390395265811649	-5.390395265811418	-0.5685256320035402	0.02672213357343537	-0.5727809882959864	-0.3781773923252098	-1.925164984031873e-08	-7.862517213228117e-09	1.026500700703922e-07	4.998738779414002e-10	-3.232964439598711e-08	1.957378581849372e-07	-3.527662436229748e-08
1.04	-0.5776915129500749	-0.09108435694511909	0.5580073178823742	1.908730932849697	-0.4648894469328553	0.01932893308210233	-0.2617696527081752	1.41078459095149	1.410784590952292	-0.07293508531542721	-0.1745304366666534	0.2050764410729334	-0.01571604639906308	0.04860741817610234	0.02147620629015337	0.08691807383890629	-0.2936704569657946	-0.006213135829592987	-0.09155548003505626	0.0001584042620434463	-0.2162442116211897	-0.216244211621189	-0.03047713301674578	6.285725144326149e-05	0.001285923053553927	-0.005701233577087533	-0.3515642028106722	0.009786777256675032	0.0006180794316919052	-0.2982561049669079	0.04264750871828821	0.03093314684216754	0.2962982837369105	-26.51435050807569	-9.257021982678811	1.671306315222181	7.98663966496454	-646.8243823056158	-44.93301747589548	-0.9151822450308276	1.59123731991604	0.2398697590975407	2.043731676474474	-7.06832324079001	-0.08620200922023766	-2.328819316671306	-0.01965214005626859	-5.384715345466538	-5.384715345466675	-0.643554682936724	-0.004883778986504978	-0.5898036792995724	-0.413786829320909	-2.657078244966566e-08	-1.504851182535282e-08	1.421601613461922e-07	1.304654229163595e-09	-4.171837088049261e-08	2.466231207832286e-07	-4.660644452348894e-08
